<?xml version="1.0" standalone="no"?>
<!DOCTYPE svg PUBLIC "-//W3C//DTD SVG 1.1//EN" "http://www.w3.org/Graphics/SVG/1.1/DTD/svg11.dtd" >

<svg>
<metadata>
Created by webfont
</metadata>
<defs>

<font id="Noto Sans S Chinese Regular" horiz-adv-x="1000" vert-adv-y="1000" >
  <font-face
    
    font-family="Noto Sans S Chinese Regular"
    
    font-weight="400"
    
    font-stretch="normal"
    
    units-per-em="1000"
    
    panose-1="0 0 0 0 0 0 0 0 0 0"
    
    ascent="880"
    
    descent="-120"
    
    x-height="543"
    
    cap-height="733"
    
    bbox="-1002 -1048 2928 1808"
    
    underline-thickness="50"
    
    underline-position="-100"
    
    unicode-range="U+0001-2CE93"
    
  />
    <missing-glyph />
    
    <glyph glyph-name="cid19" unicode="&#x32;" d="M44 54q86 75 149.5 141t105 124t61.5 109.5t20 98.5q0 63 -33 104t-102 41q-45 0 -83.5 -24.5t-68.5 -60.5l-53 52q45 49 95.5 78.5t120.5 29.5q49 0 88.5 -15.5t67 -44t42.5 -68.5t15 -89q0 -55 -20.5 -110.5t-58.5 -112.5t-91 -115.5t-117 -119.5q29 2 60.5 4.5
t59.5 2.5h203v-79h-461v54z"  horiz-adv-x="555"   />

    
    <glyph glyph-name="cid34" unicode="&#x41;" d="M436 224h-268l-71 -224h-94l249 733h103l249 -733h-98zM413 298l-35 112q-20 63 -38 123.5t-36 124.5h-4q-17 -65 -35 -125t-38 -123l-36 -112h222z"  horiz-adv-x="607"   />

    
    <glyph glyph-name="cid35" unicode="&#x42;" d="M321 74q95 0 147.5 34.5t52.5 109.5q0 69 -51.5 100.5t-148.5 31.5h-128v-276h128zM302 421q95 0 136 32.5t41 88.5q0 65 -43.5 91.5t-129.5 26.5h-113v-239h109zM100 733h218q56 0 102.5 -10t79.5 -31.5t51.5 -55.5t18.5 -82q0 -55 -28 -98.5t-80 -60.5v-5
q66 -13 108 -56.5t42 -118.5q0 -54 -20.5 -94.5t-57 -67t-88 -40t-112.5 -13.5h-234v733z"  horiz-adv-x="657"   />

    
    <glyph glyph-name="cid38" unicode="&#x45;" d="M100 733h423v-78h-330v-230h278v-79h-278v-267h341v-79h-434v733z"  horiz-adv-x="588"   />

    
    <glyph glyph-name="cid42" unicode="&#x49;" d="M100 733h93v-733h-93v733z"  horiz-adv-x="293"   />

    
    <glyph glyph-name="cid44" unicode="&#x4b;" d="M100 733h93v-368h3l306 368h104l-229 -279l265 -454h-104l-219 382l-126 -150v-232h-93v733z"  horiz-adv-x="646"   />

    
    <glyph glyph-name="cid45" unicode="&#x4c;" d="M100 733h93v-654h320v-79h-413v733z"  horiz-adv-x="542"   />

    
    <glyph glyph-name="cid47" unicode="&#x4e;" d="M100 733h96l267 -462l78 -151h5q-4 56 -8 115.5t-4 116.5v381h88v-733h-95l-267 463l-79 151h-4q3 -56 7 -113.5t4 -115.5v-385h-88v733z"  horiz-adv-x="722"   />

    
    <glyph glyph-name="uni4E00" unicode="&#x4E00;" d="M952 430v-81h-905v81h905z"     />

    
    <glyph glyph-name="cid9870" unicode="&#x4E1C;" d="M725 263q29 -28 60 -61t59.5 -66t52.5 -65t40 -58l-67 -36q-15 25 -38 57.5t-50.5 66.5t-58 68t-59.5 63zM582 341v-316q0 -33 -8.5 -51t-31.5 -27q-23 -10 -61 -12.5t-92 -2.5q-2 16 -10.5 38t-17.5 38q44 -2 79.5 -2t47.5 1q11 1 15.5 4.5t4.5 14.5v315h-220
q-45 0 -72.5 -3.5t-34.5 -11.5q-4 13 -12 37t-16 40q17 5 34.5 25t40.5 53q13 17 38.5 58t55.5 95h-241v71h278q17 33 33 67.5t30 69.5l77 -33q-11 -26 -23.5 -52t-26.5 -52h463v-71h-501q-33 -60 -68.5 -116t-70.5 -105h236v146h74v-146h289l-1 -72h-288zM333 242
q-18 -39 -40.5 -78t-48 -75t-52.5 -68t-54 -57q-11 11 -30 25.5t-33 23.5q55 46 104.5 111.5t80.5 136.5z"     />

    
    <glyph glyph-name="cid10055" unicode="&#x4E9A;" d="M684 233q19 32 40 73t41.5 84.5t38.5 87t31 82.5l71 -24q-17 -42 -36 -86.5t-39.5 -87t-41.5 -82t-40 -72.5zM152 561q19 -40 39.5 -84.5t39.5 -88.5t34.5 -84.5t25.5 -71.5l-70 -29q-9 31 -24 72.5t-33 86.5t-38 90.5t-39 85.5zM951 54v-72h-902v72h285v649h-258v73h852
v-73h-275v-649h298zM413 54h161v649h-161v-649z"     />

    
    <glyph glyph-name="cid10076" unicode="&#x4EA4;" d="M726 406q-61 -151 -167 -253q78 -59 176 -98t219 -58q-12 -12 -25 -31.5t-21 -35.5q-125 24 -225 67t-180 108q-83 -66 -185 -109.5t-223 -74.5q-6 14 -20 34.5t-25 32.5q121 25 221 65.5t178 100.5q-52 51 -92 112.5t-70 134.5l66 20q51 -128 150 -221q48 46 85 102
t62 125zM391 567q-25 -32 -56.5 -64t-65.5 -62t-69.5 -57t-68.5 -48q-10 11 -27.5 28.5t-29.5 27.5q33 19 67 42t66.5 49.5t61 54.5t51.5 57zM675 597q34 -23 71 -51t71.5 -56.5t64.5 -56.5t50 -52l-61 -48q-19 24 -48 52.5t-63 58t-71 58t-71 52.5zM928 626h-858v73h415
q-11 26 -29.5 60t-36.5 63l69 24q10 -15 21 -32.5t21 -34.5t18.5 -33t13.5 -29l-45 -18h411v-73z"     />

    
    <glyph glyph-name="cid10157" unicode="&#x4ED6;" d="M811 4q23 0 37 6t22.5 22t13 44.5t7.5 72.5q14 -10 33 -18.5t36 -12.5q-5 -51 -13 -86t-23.5 -56t-42 -30t-67.5 -9h-261q-44 0 -73.5 6t-47.5 21.5t-25.5 42t-7.5 67.5v325l-97 -38l-29 65l126 49v263h73v-234l146 57v274h71v-247l156 60l9 8l13 11l51 -21l-3 -13
q0 -68 -1 -127.5t-2.5 -107.5t-3.5 -81.5t-5 -49.5q-7 -35 -22 -51t-38 -22q-20 -5 -49 -6.5t-52 -0.5q-2 17 -6.5 36.5t-11.5 33.5q20 -2 43 -2h33q14 0 21.5 5t12.5 25t7.5 95t3.5 193l-156 -61v-367h-71v339l-146 -58v-352q0 -21 3 -35t12 -21.5t25.5 -10.5t42.5 -3h256z
M337 812q-42 -108 -101 -211v-676h-73v562q-24 -34 -49 -64.5t-50 -56.5q-3 6 -8 15.5t-11 19.5t-12 19.5t-11 15.5q37 36 72 81t67 96.5t59.5 107t48.5 112.5z"     />

    
    <glyph glyph-name="cid10188" unicode="&#x4EEC;" d="M918 18q0 -35 -9 -52.5t-31 -26.5q-23 -9 -61.5 -11t-97.5 -2q-2 14 -9 35t-15 36q43 -2 79.5 -2t48.5 1q13 1 17.5 5.5t4.5 17.5v713h-270v68h343v-782zM439 836q16 -23 33.5 -48.5t33.5 -51t29.5 -49t22.5 -42.5l-61 -35q-8 19 -20.5 43t-28.5 50.5t-33 52.5t-34 49z
M340 636h72v-713h-72v713zM296 812q-15 -54 -34.5 -108t-41.5 -105v-675h-72v530q-33 -59 -69 -105q-2 6 -7 16.5t-10.5 21t-11.5 21t-11 16.5q30 38 57 84.5t51 99t44.5 109.5t36.5 114z"     />

    
    <glyph glyph-name="cid48" unicode="&#x4f;" d="M371 68q49 0 89.5 21.5t69 60.5t44 94.5t15.5 124.5t-15.5 124t-44 93.5t-69 59t-89.5 20.5q-50 0 -90 -20.5t-68.5 -59t-44 -93.5t-15.5 -124t15.5 -124.5t44 -94.5t68.5 -60.5t90 -21.5zM371 -13q-69 0 -126.5 26.5t-99 76t-64.5 120.5t-23 159t23 158t64.5 119t99 75
t126.5 26t126.5 -26t99 -75t64.5 -119t23 -158t-23 -159t-64.5 -120.5t-99 -76t-126.5 -26.5z"  horiz-adv-x="742"   />

    
    <glyph glyph-name="cid10361" unicode="&#x4F60;" d="M822 419q21 -40 41 -84t36.5 -88.5t29 -86t18.5 -75.5l-71 -24q-6 34 -18 76t-27.5 86.5t-34.5 89.5t-39 84zM684 576v-562q0 -32 -7.5 -49.5t-27.5 -26.5q-20 -10 -52 -12.5t-80 -2.5q-3 16 -10.5 37.5t-15.5 37.5q35 -2 64 -1.5t39 0.5q17 0 17 17v562h-152
q-21 -50 -45.5 -93.5t-51.5 -78.5q-5 4 -12.5 10.5t-15.5 13t-16.5 13t-14.5 10.5q27 34 51.5 77.5t45.5 92.5t38 102.5t29 108.5l73 -16q-23 -87 -53 -171h405l12 3l51 -12q-10 -55 -22 -113.5t-22 -98.5l-62 12q5 27 11 64.5t12 75.5h-188zM522 397q-24 -99 -62 -188
t-84 -152q-11 9 -30.5 21t-33.5 20q24 28 44.5 64t37.5 76.5t31 84.5t24 88zM337 812q-22 -56 -48 -109.5t-55 -104.5v-672h-71v561q-24 -35 -49.5 -65.5t-51.5 -58.5q-6 14 -18.5 37t-23.5 36q37 36 72 81t67 96.5t59.5 107t48.5 112.5z"     />

    
    <glyph glyph-name="cid11520" unicode="&#x51FA;" d="M892 340v-415h-80v57h-704v358h80v-285h270v348h-306v342h77v-269h229v360h80v-360h235v270h80v-343h-315v-348h274v285h80z"     />

    
    <glyph glyph-name="cid11521" unicode="&#x51FB;" d="M541 52h233v250h75v-379h-75v57h-623v322h77v-250h237v326h-396v74h396v157h-323v73h323v154h76v-154h324v-73h-324v-157h393v-74h-393v-326z"     />

    
    <glyph glyph-name="cid11554" unicode="&#x5212;" d="M910 826v-805q0 -37 -9.5 -55t-32.5 -27q-23 -10 -62.5 -12.5t-104.5 -2.5q-3 15 -10 36t-15 37q48 -2 86 -1.5t51 1.5q13 0 18.5 4.5t5.5 18.5v805zM717 181h-71v545h71v-545zM280 498q10 -70 23.5 -133t28.5 -117q81 104 130 227l71 -21q-34 -81 -78 -152t-96 -134
q29 -79 61.5 -123.5t63.5 -44.5q19 0 28 37t14 124q13 -12 30.5 -23t32.5 -16q-5 -57 -13.5 -94.5t-21 -60t-31 -31.5t-43.5 -9q-52 0 -96.5 48t-79.5 133q-97 -97 -209 -164q-8 12 -24.5 30t-28.5 29q66 35 124.5 80t109.5 99q-22 66 -39 143.5t-29 165.5l-160 -19l-8 70
l160 18q-8 67 -12 135.5t-5 139.5h75q0 -70 3.5 -136.5t10.5 -130.5l315 36l7 -70zM453 633q-11 15 -27 33t-35.5 37t-40.5 37.5t-40 33.5l50 40q19 -15 40.5 -32.5t41 -35.5t36 -35.5t27.5 -32.5z"     />

    
    <glyph glyph-name="cid11567" unicode="&#x521B;" d="M909 821v-799q0 -38 -11 -55.5t-34 -26.5q-24 -9 -67 -11.5t-113 -1.5q-3 14 -10.5 35t-15.5 36q26 -1 50.5 -1.5t44.5 -0.5t35 0.5t22 0.5q14 1 20 6t6 19v799h73zM713 169h-71v551h71v-551zM384 814q-5 -11 -10 -21.5t-10 -21.5q31 -32 64 -67.5t64 -70.5t57.5 -68
t44.5 -60l-53 -49q-17 25 -41 56t-51.5 64.5t-57.5 68t-60 66.5q-48 -81 -110 -154t-136 -130q-9 11 -25.5 27t-28.5 25q47 34 90 75.5t79.5 88t65.5 95.5t49 97zM451 3q17 0 27.5 5t16.5 20t9 42t5 71q13 -8 31.5 -16t34.5 -11q-3 -52 -10 -86t-20 -54t-34.5 -28t-54.5 -8
h-185q-36 0 -60 5t-39 17t-21 33t-6 54v426h362v-12q0 -5 -0.5 -10t-0.5 -8q-4 -65 -7.5 -110.5t-8.5 -76.5t-11 -49.5t-15 -27.5q-11 -13 -24.5 -18.5t-32.5 -7.5q-15 -2 -41.5 -1.5t-56.5 2.5q-2 15 -6.5 32.5t-11.5 31.5q27 -3 50.5 -3.5t34.5 -0.5q10 0 16.5 1.5
t12.5 7.5q4 6 8 18t7.5 34t7 54.5t6.5 77.5h-217v-360q0 -14 2 -22.5t8.5 -13.5t18.5 -6.5t31 -1.5h174z"     />

    
    <glyph glyph-name="cid11588" unicode="&#x5229;" d="M909 825v-798q0 -38 -11 -57t-34 -28q-24 -10 -66.5 -12.5t-111.5 -2.5q-4 15 -11.5 37.5t-15.5 37.5q26 -1 50 -1.5t44 -0.5t35 0.5t22 0.5q14 0 20 5.5t6 20.5v798h73zM697 170h-73v548h73v-548zM341 537h205v-69h-205v-27q18 -17 46 -44.5t57 -56t54 -53.5l36 -36
l-44 -61q-11 14 -28.5 34t-38 42.5t-42 46t-40.5 44.5v-432h-74v429q-39 -86 -88.5 -164t-100.5 -129q-7 15 -19 35.5t-22 34.5q30 28 60.5 66.5t59 83t53 92.5t42.5 95h-195v69h210v170q-49 -10 -97 -17.5t-95 -14.5q-2 14 -9 30.5t-14 28.5q55 8 113.5 18.5t113 23
t103 26.5t83.5 29l55 -57q-37 -14 -82.5 -27.5t-96.5 -25.5v-184z"     />

    
    <glyph glyph-name="cid11616" unicode="&#x523B;" d="M922 823v-803q0 -36 -9.5 -54t-32.5 -27t-62.5 -11t-103.5 -2q-2 15 -9 35.5t-15 35.5q46 -2 84 -2t50 1q14 1 19.5 5.5t5.5 18.5v803h73zM741 168h-71v553h71v-553zM593 361q-62 -105 -144 -191q21 -18 44 -38.5t44.5 -40.5t40 -39t31.5 -34l-54 -50q-12 16 -30 35
t-38 39t-42.5 41t-43.5 40q-66 -60 -140 -110t-152 -88q-3 6 -9 14.5t-12.5 17.5t-13 17t-12.5 14q72 31 139.5 72.5t127 92t109.5 109.5t87 125zM527 554q-69 -133 -177.5 -236t-234.5 -170q-6 11 -21 29.5t-26 29.5q79 38 150.5 90t130.5 118q-72 -5 -116 -8t-69.5 -5
t-37 -4.5t-18.5 -5.5q-1 6 -3.5 15t-6 18.5t-7 19.5t-6.5 17q14 2 27.5 13t30.5 28q6 6 18 20t27 32.5t32 41.5t33 47h-196v68h257q-8 26 -23 55.5t-32 55.5l68 18q21 -30 39.5 -66t26.5 -62l-3 -1h208v-68h-259q-32 -48 -68 -92t-74 -82l204 9q17 23 32 47t27 50z"     />

    
    <glyph glyph-name="cid11785" unicode="&#x52A1;" d="M858 707q-45 -68 -112.5 -120t-150.5 -93q78 -24 169.5 -38t191.5 -20q-11 -13 -22.5 -32t-18.5 -35q-115 10 -217.5 31t-190.5 57q-100 -39 -209.5 -62.5t-218.5 -37.5q-4 14 -12.5 33t-17.5 32q96 9 191.5 27t184.5 47q-89 49 -149 118q-30 -25 -64.5 -47.5
t-72.5 -44.5q-8 13 -21 29.5t-25 25.5q106 54 179 124.5t111 136.5l78 -16q-14 -22 -30 -44t-34 -44h403l13 4zM324 656q33 -42 79.5 -74t104.5 -57q71 29 130.5 64.5t104.5 80.5h-404zM866 282q0 -7 -1 -13q-1 -5 -1.5 -10.5t-1.5 -9.5q-8 -68 -16.5 -117t-18 -83
t-20 -54.5t-23.5 -32.5q-17 -15 -35 -20t-46 -7q-22 -1 -62.5 -0.5t-85.5 3.5q-1 15 -7 33.5t-16 32.5q48 -5 90 -6t61 -1q15 0 25 1.5t18 7.5q17 14 32 63.5t28 147.5h-303q-24 -60 -59 -107t-82 -82t-107.5 -60t-133.5 -43q-6 13 -18 32.5t-23 30.5q132 25 216.5 79
t127.5 150h-275v65h298q6 23 11 47.5t8 51.5l77 -6q-4 -25 -9 -48.5t-10 -44.5h362z"     />

    
    <glyph glyph-name="cid52" unicode="&#x53;" d="M304 -13q-78 0 -143.5 29t-113.5 80l55 63q40 -42 93 -66.5t110 -24.5q72 0 113 33t41 87q0 28 -9.5 47.5t-26 34t-38.5 26t-48 22.5l-106 46q-26 11 -52 26.5t-48 38t-35.5 53t-13.5 70.5q0 42 17.5 78t48 62t73 40.5t92.5 14.5q66 0 121.5 -25t94.5 -66l-49 -59
q-34 32 -75 50.5t-92 18.5q-63 0 -100 -29t-37 -79q0 -27 11 -46t28 -33t39 -24t43 -19l105 -45q32 -14 59.5 -31t48 -40t32 -53.5t11.5 -71.5q0 -44 -17.5 -81.5t-49.5 -66t-78.5 -44.5t-103.5 -16z"  horiz-adv-x="597"   />

    
    <glyph glyph-name="cid12086" unicode="&#x534E;" d="M945 150h-407v-227h-77v227h-406v72h406v117h77v-117h407v-72zM226 604q-29 -28 -59.5 -53t-61.5 -46q-8 11 -25 28.5t-29 26.5q40 25 79 56t74.5 67t67 75t55.5 80l68 -25q-20 -34 -44.5 -66.5t-51.5 -64.5v-344h-73v266zM530 556q-36 -11 -72.5 -21t-71.5 -19
q-4 13 -11.5 29.5t-15.5 28.5q42 11 85 23.5t86 26.5v199h73v-173q75 27 139.5 57.5t109.5 62.5l57 -57q-61 -38 -140 -71.5t-166 -62.5v-111q0 -24 10.5 -31t45.5 -7h162q14 0 22.5 4t14 16t8 34t4.5 57q13 -10 32 -17.5t34 -11.5q-3 -43 -9.5 -71.5t-18.5 -45t-32 -23.5
t-50 -7h-175q-36 0 -59 4.5t-37 16.5t-19.5 32t-5.5 51v87z"     />

    
    <glyph glyph-name="cid12088" unicode="&#x534F;" d="M899 470q11 -34 21.5 -72t20 -75.5t16.5 -71.5t11 -60l-68 -17q-3 27 -9.5 61.5t-15 72t-18.5 76t-20 73.5zM829 610q0 -166 -3.5 -280t-10.5 -187.5t-17 -112.5t-23 -56q-15 -20 -32 -28t-41 -11q-23 -2 -60.5 -1.5t-76.5 2.5q-2 16 -7.5 36t-15.5 35q43 -3 78.5 -4
t52.5 -1q13 0 21.5 3t16.5 13q10 12 17 46t12.5 99.5t9.5 166.5t7 246h-138q-2 -78 -13.5 -163t-41.5 -169.5t-84 -166.5t-141 -155q-9 12 -25.5 27t-30.5 23q82 68 133 143.5t79.5 154t39.5 156.5t13 150h-176v72h177v179h71v-179h209v-38zM454 461q-16 -79 -43.5 -153
t-61.5 -126q-9 8 -26.5 20.5t-29.5 18.5q33 48 57 114t38 138zM235 535v-611h-71v611h-113v69h113v233h71v-233h107v-69h-107z"     />

    
    <glyph glyph-name="cid12098" unicode="&#x5357;" d="M530 667q-4 -28 -8 -55t-8 -51h371v-551q0 -33 -9.5 -50t-33.5 -25q-24 -9 -66.5 -10.5t-102.5 -1.5q-4 15 -11.5 34t-15.5 33q48 -2 88 -2.5t53 0.5q14 1 18.5 5.5t4.5 16.5v482h-619v-568h-73v637h325q4 23 7 50t6 56h-392v70h399q2 27 4 52.5t3 48.5l80 -9
q-2 -22 -5 -45.5t-6 -46.5h399v-70h-408zM533 119v-176h-71v176h-215v62h215v101h-194v61h105q-3 12 -9 27t-13.5 31t-15.5 31.5t-17 28.5l59 15q18 -26 34.5 -59t23.5 -57l-54 -17h179q16 32 31.5 70t25.5 67l67 -15q-14 -32 -29 -63t-29 -59h113v-61h-206v-101h223v-62
h-223z"     />

    
    <glyph glyph-name="cid12144" unicode="&#x5373;" d="M911 206q0 -32 -8 -49t-28 -26q-20 -10 -55 -12t-90 -1q-2 15 -8 35t-14 36q39 -2 70 -1.5t41 0.5q11 1 15 4t4 14v502h-181v-785h-73v855h327v-572zM380 264q19 -30 39 -64.5t39 -68.5t34.5 -65.5t26.5 -56.5l-67 -37q-8 20 -20 46t-26 54q-95 -33 -151.5 -53.5t-88 -33
t-45 -19.5t-21.5 -13q-4 16 -13 39t-18 37q13 6 27.5 20t14.5 43v692h381v-469h-307v-246l191 62q-15 27 -30 53.5t-29 49.5zM419 382v138h-234v-138h234zM185 717v-130h234v130h-234z"     />

    
    <glyph glyph-name="cid12341" unicode="&#x53F0;" d="M657 723q36 -32 74.5 -69.5t74 -76t65.5 -76t50 -68.5l-63 -45q-11 20 -26.5 41.5t-34.5 44.5q-143 -8 -245 -13.5t-173 -10t-115.5 -7.5t-71 -5.5t-40 -5.5t-23.5 -6q-2 12 -10 35t-14 38q17 3 36 19t45 40q13 12 39.5 40.5t59 66.5t67.5 83t64 92l73 -33
q-60 -81 -125 -156t-131 -138l510 25q-35 39 -72 77t-73 70zM182 342h636v-416h-78v52h-483v-54h-75v418zM257 271v-221h483v221h-483z"     />

    
    <glyph glyph-name="cid53" unicode="&#x54;" d="M253 655h-222v78h537v-78h-222v-655h-93v655z"  horiz-adv-x="599"   />

    
    <glyph glyph-name="cid12374" unicode="&#x5408;" d="M581 807q-8 -12 -16 -23l-16 -22q88 -94 191.5 -158t223.5 -115q-14 -12 -28.5 -31t-22.5 -36q-43 21 -83.5 42.5t-78.5 46.5v-68h-501v51q-38 -23 -76 -43.5t-77 -37.5q-10 15 -24 33.5t-30 31.5q71 28 139.5 66.5t130 84.5t113.5 99t90 111zM749 512q-66 41 -126 89
t-117 108q-49 -57 -107 -106t-122 -91h472zM198 323h616v-394h-77v52h-464v-56h-75v398zM273 257v-207h464v207h-464z"     />

    
    <glyph glyph-name="cid12378" unicode="&#x540C;" d="M911 17q0 -35 -9 -53.5t-32 -27.5q-23 -10 -62.5 -12t-104.5 -2q-2 16 -10 37t-17 36q48 -2 86.5 -2t51.5 1q14 1 19 6t5 17v697h-675v-793h-72v864h820v-768zM754 545h-504v65h504v-65zM369 125v-72h-69v388h401v-316h-332zM369 378v-189h262v189h-262z"     />

    
    <glyph glyph-name="cid12380" unicode="&#x540D;" d="M847 -76h-76v52h-444v-52h-73v329q-42 -14 -83 -26t-83 -22q-5 15 -16 35.5t-22 32.5q94 20 187 52.5t181 79.5q-33 30 -74 63.5t-78 59.5l56 43q40 -27 85 -61.5t80 -64.5q75 46 137.5 102t107.5 122h-370q-48 -47 -107 -89.5t-130 -79.5q-8 13 -23.5 30.5t-27.5 25.5
q121 59 205 135.5t129 148.5l83 -18q-14 -21 -30 -42.5t-35 -42.5h354l12 4l50 -31q-62 -120 -164.5 -212t-227.5 -158h397v-416zM771 44v227h-444v-227h444z"     />

    
    <glyph glyph-name="cid12580" unicode="&#x548C;" d="M900 744v-769h-74v75h-223v-82h-73v776h370zM826 122v551h-223v-551h223zM322 543h174v-69h-174v-26q14 -15 38.5 -42.5t50 -57t47.5 -55.5t31 -38l-45 -61q-9 14 -23 34.5t-30.5 43.5t-34.5 46.5t-34 44.5v-437h-73v440q-37 -87 -84 -166.5t-95 -131.5q-6 15 -18 34.5
t-23 33.5q28 28 57 67t55 83.5t49 92.5t40 95h-176v69h195v166q-42 -7 -83.5 -13t-81.5 -11q-3 14 -8.5 30t-12.5 29q49 7 102 16t102.5 19.5t94 22.5t77.5 25l50 -58q-35 -13 -77.5 -24.5t-89.5 -21.5v-180z"     />

    
    <glyph glyph-name="cid13704" unicode="&#x5728;" d="M935 682v-71h-545q-26 -54 -56 -105t-65 -99v-480h-73v392q-26 -29 -55 -53.5t-61 -47.5q-5 15 -17 35t-21 32q86 61 151.5 145.5t112.5 180.5h-240v71h273q31 76 53 155l76 -19q-10 -34 -22 -68t-26 -68h515zM671 17h264v-70h-601v70h263v281h-224v70h224v191h74v-191
h225v-70h-225v-281z"     />

    
    <glyph glyph-name="cid13713" unicode="&#x5730;" d="M819 13q22 0 35.5 6t21.5 22t11.5 43.5t6.5 70.5q14 -10 32.5 -18t34.5 -11q-5 -51 -12.5 -85.5t-22.5 -55.5t-40.5 -30t-64.5 -9h-245q-42 0 -70.5 6t-45.5 21t-24 41t-7 66v315l-79 -33l-29 64l108 46v272h71v-242l134 57v278h71v-249l132 56l16 14l14 11l52 -20
l-4 -14q0 -70 -0.5 -132t-2 -111t-3.5 -83t-4 -48q-5 -31 -18.5 -46t-34.5 -20t-47 -6t-47 -1q-2 15 -6.5 33.5t-11.5 30.5q18 -1 38.5 -1h28.5q11 0 18.5 4.5t11.5 21.5q4 18 5.5 96.5t1.5 197.5l-139 -59v-367h-71v337l-134 -57v-346q0 -20 3 -32.5t11.5 -20t24 -10.5
t39.5 -3h241zM243 238q28 12 56.5 24.5t57.5 23.5l15 -66q-80 -38 -160.5 -73.5t-146.5 -64.5l-29 74q28 10 63 23.5t74 30.5v317h-128v71h128v227h70v-227h117v-71h-117v-289z"     />

    
    <glyph glyph-name="cid14036" unicode="&#x5802;" d="M935 17v-66h-867v66h394v120h-307v65h307v99h-236v231h552v-231h-243v-99h324v-65h-324v-120h400zM296 361h409v111h-409v-111zM144 459h-68v218h172q-14 27 -36 60.5t-45 61.5l65 26q27 -30 53 -66.5t39 -64.5l-37 -17h175v160h73v-160h184l-43 17q23 28 48.5 66.5
t42.5 68.5l76 -27q-24 -34 -50.5 -67t-50.5 -58h186v-218h-72v152h-712v-152z"     />

    
    <glyph glyph-name="cid14516" unicode="&#x591A;" d="M941 373q-52 -110 -139 -188.5t-197 -132t-237 -84.5t-259 -47q-4 16 -12 37t-18 35q128 12 249.5 39.5t227.5 76.5q-25 24 -56.5 50.5t-60.5 49.5l61 35q30 -22 63.5 -49t60.5 -52q64 37 116 83.5t90 105.5h-270q-63 -51 -140 -95.5t-171 -81.5q-7 12 -20.5 29t-26.5 26
q76 27 140 61t116.5 70.5t93 75t67.5 75.5l82 -18q-15 -19 -31 -37.5t-35 -36.5h241l15 4zM793 723q-47 -83 -122 -149.5t-166 -117.5t-191 -86.5t-197 -55.5q-5 15 -15 35t-20 32q84 15 169.5 42t165.5 65q-25 23 -56 45.5t-61 39.5l54 38q32 -18 66.5 -42t61.5 -48
q60 35 110 75t87 87h-282q-48 -40 -106 -76t-126 -67q-8 13 -23 28t-27 24q120 51 207 117.5t135 128.5l81 -17q-14 -18 -30.5 -35.5t-34.5 -35.5h259l13 3z"     />

    
    <glyph glyph-name="cid16139" unicode="&#x5BFC;" d="M941 222h-219v-209q0 -34 -10.5 -50.5t-36.5 -24.5t-72.5 -9.5t-118.5 -1.5q-3 15 -10.5 33.5t-15.5 33.5q27 -1 53.5 -1.5t48.5 -0.5t38.5 0.5t23.5 0.5q14 0 19.5 4.5t5.5 16.5v208h-375q23 -19 46.5 -41t44.5 -44t38.5 -43.5t29.5 -40.5l-55 -49q-11 19 -29 42.5
t-40 47.5t-46 47t-47 43l44 38h-193v69h582v77h75v-77h220zM350 394q-61 0 -101.5 4.5t-65 17t-34.5 34.5t-10 57v290h685v-236h-609v-53q0 -16 5 -26t19 -16t39.5 -8t66.5 -2h398q30 0 49 3.5t30.5 13t16.5 26.5t8 44q14 -8 34 -14.5t37 -9.5q-5 -38 -14.5 -62t-28.5 -38
t-50 -19.5t-78 -5.5h-397zM215 732v-105h536v105h-536z"     />

    
    <glyph glyph-name="cid17105" unicode="&#x5E02;" d="M534 618v-135h324v-350q0 -32 -9 -50.5t-33 -27.5q-26 -10 -68.5 -11.5t-106.5 -1.5q-2 17 -10 37.5t-16 36.5q51 -2 91.5 -2h53.5q14 2 18.5 5.5t4.5 14.5v276h-249v-485h-75v485h-234v-371h-74v444h308v135h-405v73h426q-12 29 -30.5 65t-35.5 66l71 22
q11 -17 22.5 -37t22 -39.5t19.5 -38t14 -33.5l-13 -5h397v-73h-413z"     />

    
    <glyph glyph-name="cid17282" unicode="&#x5E73;" d="M645 416q14 23 29 53t29.5 61.5t27.5 63t22 58.5l78 -22q-14 -30 -29 -62t-31 -63t-32 -59.5t-31 -50.5zM243 647q15 -27 30 -57t28 -60t22.5 -58t14.5 -50l-70 -24q-5 22 -14.5 50.5t-21.5 59t-26 61.5t-28 58zM946 274h-410v-350h-76v350h-404v73h404v349h-352v73h782
v-73h-354v-349h410v-73z"     />

    
    <glyph glyph-name="cid18449" unicode="&#x610F;" d="M930 603v-61h-854v61h231q-6 20 -15.5 42.5t-20.5 42.5l63 14h-213v61h357q-8 17 -17 34t-18 32l72 15q13 -17 24.5 -39t20.5 -42h319v-61h-199l58 -13q-12 -23 -24 -44.5t-23 -41.5h239zM340 702q14 -23 26 -50t18 -49h231q13 23 25.5 50t20.5 49h-321zM799 168
q19 -19 38 -41t36.5 -45t32.5 -45t24 -40l-63 -32q-8 19 -22 41.5t-31 45.5t-36 46.5t-38 43.5zM608 -6q16 0 26 3.5t15.5 14t8 30.5t4.5 53q12 -8 31 -15t33 -11q-3 -41 -9.5 -67.5t-19 -42t-32.5 -21.5t-50 -6h-188q-38 0 -62.5 4t-39 14.5t-20.5 27.5t-6 44v129h73v-129
q0 -17 11 -22.5t50 -5.5h175zM814 203h-347q19 -11 39.5 -23.5t39.5 -25.5t35.5 -25.5t28.5 -23.5l-46 -46q-12 12 -30 26.5t-39 29.5t-43 29.5t-43 26.5l34 32h-251v289h622v-289zM741 323h-478v-69h478v69zM741 441h-478v-69h478v69zM65 -15q19 16 36.5 37.5t32.5 44.5
t27.5 46.5t21.5 45.5l62 -28q-11 -23 -23.5 -47t-27.5 -48t-32.5 -46t-36.5 -40z"     />

    
    <glyph glyph-name="cid18926" unicode="&#x6211;" d="M895 399q-34 -64 -77.5 -122.5t-96.5 -112.5q29 -79 62 -124t71 -45q20 0 30 41.5t15 137.5q12 -12 29.5 -23.5t33.5 -16.5q-5 -62 -13 -103t-21.5 -65.5t-33 -34.5t-47.5 -10q-60 0 -105 49.5t-80 137.5q-49 -44 -101.5 -81t-109.5 -66q-8 14 -22.5 30.5t-28.5 28.5
q63 31 123 71.5t114 90.5q-18 63 -32 136t-24 154h-235v-160q45 10 89.5 19.5t89.5 19.5l5 -67q-46 -11 -92 -21.5t-92 -21.5v-222q0 -36 -10 -54.5t-33 -27.5t-64 -11.5t-102 -2.5q-3 15 -11.5 37t-16.5 38q48 -2 87.5 -1.5t52.5 0.5q14 1 19 5t5 18v203
q-57 -12 -109.5 -24t-97.5 -22l-21 75q45 8 103.5 19.5t124.5 25.5v175h-214v71h214v159q-47 -9 -93 -16.5t-91 -13.5q-3 14 -9.5 31t-14.5 31q52 8 107.5 18t107.5 21.5t98.5 24.5t81.5 26l53 -61q-74 -26 -167 -46v-174h229q-7 69 -10 140t-4 145h76q0 -152 12 -285h294
v-71h-286q15 -127 41 -228q80 86 131 182zM859 601q-12 18 -29.5 39.5t-38.5 44t-44 45t-45 41.5l57 39q22 -18 45 -40t44.5 -44t40 -43t30.5 -39z"     />

    
    <glyph glyph-name="uni624B" unicode="&#x624B;" d="M949 249h-410v-222q0 -40 -12.5 -59t-40.5 -28t-77.5 -11.5t-128.5 -1.5q-5 16 -14 37.5t-18 36.5q31 -1 61 -1.5t54.5 -0.5t42.5 0.5t27 0.5q17 0 24 6t7 22v221h-411v73h411v162h-344v71h344v154q-83 -9 -165.5 -14.5t-160.5 -9.5q-2 15 -8 34t-11 32q88 4 184 11
t186.5 17.5t170 24t135.5 31.5l56 -59q-64 -20 -143.5 -34t-168.5 -25v-162h354v-71h-354v-162h410v-73z"     />

    
    <glyph glyph-name="cid19047" unicode="&#x6253;" d="M957 679h-177v-647q0 -38 -11 -58t-38 -30t-74 -12.5t-118 -2.5q-4 17 -13 40.5t-18 39.5q27 -1 53.5 -1.5t49 -1t39.5 0t25 0.5q14 1 20.5 6.5t6.5 19.5v646h-285v73h540v-73zM422 344q-37 -11 -74 -22.5t-74 -22.5v-277q0 -32 -8 -48.5t-28 -25.5q-20 -10 -52 -12
t-84 -2q-2 15 -9 35t-15 35q36 -1 65 -1h38q20 0 20 20v253q-37 -11 -71 -21t-65 -19l-22 75q33 8 73 19t85 22v213h-149v71h149v199h73v-199h138v-71h-138v-191l139 39z"     />

    
    <glyph glyph-name="cid19647" unicode="&#x63D0;" d="M679 10q43 -6 94 -6h35.5h57.5t59.5 0.5t40.5 0.5q-8 -12 -14 -32t-8 -34h-174q-54 0 -100.5 6.5t-86 24.5t-71.5 50.5t-56 85.5q-21 -57 -50.5 -102.5t-69.5 -80.5q-8 9 -25.5 23t-29.5 22q67 53 102 135.5t47 194.5l69 -8q-4 -28 -8.5 -55t-11.5 -52q22 -63 54.5 -99.5
t75.5 -54.5v316h-244v63h570v-63h-256v-117h207v-61h-207v-157zM346 333q-27 -10 -54.5 -18.5t-55.5 -18.5v-280q0 -31 -7.5 -47t-26.5 -25q-17 -9 -46.5 -12t-77.5 -2q-2 14 -8 33.5t-14 35.5q32 -1 58.5 -1h34.5q10 0 14 4t4 15v257q-31 -11 -60 -20t-56 -17l-18 72
q28 7 62 17t72 22v219h-123v69h123v199h69v-199h110v-69h-110v-197l101 31zM880 479h-469v324h469v-324zM809 616h-330v-80h330v80zM809 747h-330v-79h330v79z"     />

    
    <glyph glyph-name="cid19840" unicode="&#x643A;" d="M937 185q-1 -6 -1 -11q-1 -5 -1 -9.5t-1 -8.5q-10 -95 -21 -141.5t-30 -62.5q-12 -13 -26.5 -17.5t-35.5 -6.5q-18 -1 -51 -0.5t-70 2.5q-2 14 -7 31.5t-14 31.5q38 -3 70 -4t46 -1q13 0 21 1.5t14 6.5q11 10 18.5 40t15.5 93h-197q7 19 14 39.5t15 42.5h-131
q-16 -113 -68.5 -181.5t-146.5 -109.5q-6 11 -21.5 28t-27.5 26q87 32 132.5 88t57.5 149h-138v62h428q-7 -23 -14.5 -45t-15.5 -43h186zM230 302v-289q0 -30 -7.5 -46.5t-24.5 -25.5q-18 -10 -46.5 -12.5t-71.5 -2.5q-2 15 -8 35t-14 35q30 -1 54 -0.5t32 0.5q9 1 12.5 4
t3.5 13v262l-97 -37l-21 71q25 8 55 19t63 23v216h-111v69h111v200h70v-200h89v-47q48 47 84.5 111.5t58.5 136.5l64 -16q-8 -24 -17 -48t-19 -47h165q-11 20 -25 44t-29 44l66 25q19 -24 37.5 -53t28.5 -50l-24 -10h211v-56h-211v-61h179v-48h-179v-63h179v-48h-179v-65
h220v-56h-452v-28h-64v292q-16 -21 -32 -39.5t-33 -35.5q-4 8 -14 22.5t-20 26.5h-84v-191l84 32l13 -67zM642 450h-165v-65h165v65zM642 561h-165v-63h165v63zM642 670h-165v-61h165v61z"     />

    
    <glyph glyph-name="uni65E5" unicode="&#x65E5;" d="M829 768v-829h-78v61h-496v-65h-75v833h649zM255 695v-270h496v270h-496zM751 73v279h-496v-279h496z"     />

    
    <glyph glyph-name="cid21055" unicode="&#x66F4;" d="M533 248q-9 -47 -30 -89.5t-59 -80.5q94 -43 223.5 -58.5t296.5 -19.5q-10 -14 -19 -34.5t-12 -38.5q-173 7 -310 28.5t-239 75.5q-51 -33 -121.5 -60.5t-168.5 -47.5q-6 13 -19 32.5t-25 32.5q90 17 154.5 38.5t110.5 47.5q-36 28 -66.5 62.5t-56.5 78.5l62 25
q51 -78 121 -124q35 29 53.5 62.5t27.5 69.5h-297v384h309v84h-400v67h864v-67h-388v-84h325v-384h-336zM796 411h-252v-41q0 -15 -0.5 -30.5t-1.5 -29.5h254v101zM544 570v-100h252v100h-252zM230 470h238v100h-238v-100zM466 310q2 15 2 30.5v30.5v40h-238v-101h236z"     />

    
    <glyph glyph-name="cid21098" unicode="&#x670D;" d="M937 447q-20 -103 -54.5 -186.5t-82.5 -150.5q36 -42 77.5 -75t89.5 -56q-13 -11 -26.5 -27t-21.5 -30q-90 51 -162 135q-67 -79 -151 -128q-8 13 -20.5 29t-23.5 26q84 46 153 127q-42 61 -75 131.5t-58 148.5h-25v-468h-70v874h422v-192q0 -29 -8 -44.5t-31 -23.5
q-24 -8 -62 -9t-95 -1q-2 15 -9 32t-15 31q46 -1 81.5 -0.5t46.5 0.5q12 1 16 4t4 12v122h-280v-268h324l13 2zM647 391q20 -62 47 -118t62 -106q66 98 100 224h-209zM399 12q0 -30 -7 -47.5t-27 -27.5q-19 -10 -50 -12t-82 -2q-2 14 -8 35.5t-14 35.5q35 -1 63 -1t37 1
q11 1 15 4.5t4 14.5v246h-157q-7 -89 -23.5 -177.5t-51.5 -159.5q-10 9 -28.5 20t-32.5 16q26 52 40.5 114t22 126t9.5 127t2 118v357h288v-788zM179 731v-164h151v164h-151zM330 330v168h-151v-55q0 -26 -0.5 -54.5t-1.5 -58.5h153z"     />

    
    <glyph glyph-name="cid21579" unicode="&#x6837;" d="M944 162h-247v-238h-73v238h-262v69h262v141h-193v69h193v136h-225v69h327q26 42 51.5 95t42.5 98l74 -25q-20 -42 -43 -86t-46 -82h118v-69h-226v-136h195v-69h-195v-141h247v-69zM328 300q-11 25 -31.5 64.5t-40.5 77.5v-518h-71v458q-23 -75 -52 -142.5t-59 -113.5
q-6 16 -17.5 37t-21.5 34q23 31 45 75t41.5 94.5t36 104t27.5 104.5h-126v70h126v192h71v-192h106v-70h-106v-40q10 -14 27 -39.5t35 -53.5t34 -52.5t22 -35.5zM526 647q-5 16 -14 36t-20.5 41.5t-24.5 43t-26 40.5l65 24q13 -18 26.5 -39t25.5 -41.5t21.5 -40t15.5 -35.5z
"     />

    
    <glyph glyph-name="cid22145" unicode="&#x697C;" d="M733 580q23 -22 50 -43.5t56 -40t58.5 -34.5t56.5 -27q-12 -10 -26.5 -26t-22.5 -29q-53 27 -111.5 72t-106.5 95v-165h-70v162q-47 -52 -105.5 -96.5t-112.5 -72.5q-8 13 -21.5 28t-24.5 25q27 12 56 28.5t57 36t54.5 42t49.5 45.5h-190v63h237v194h70v-194h242v-63
h-196zM652 367q-8 -17 -16 -35t-18 -36h323v-64h-109q-30 -101 -98 -166q57 -22 106 -43.5t87 -41.5l-52 -53q-79 44 -200 93q-56 -35 -129.5 -58t-170.5 -38q-4 15 -12.5 33t-17.5 30q78 10 140 25t111 40q-41 15 -83.5 30t-86.5 29q20 26 40 56.5t40 63.5h-146v64h181
q11 22 21 43.5t18 41.5zM584 232q-14 -25 -28 -48t-28 -43q69 -23 135 -47q34 26 57 60.5t38 77.5h-174zM316 308q-5 12 -12.5 27.5t-16.5 33.5t-19 37t-19 37v-519h-69v462q-22 -77 -49.5 -145t-56.5 -115q-7 17 -18 37.5t-21 34.5q22 31 43 75t39.5 94t33.5 103.5
t25 104.5h-117v70h121v192h69v-192h97v-70h-97v-39q9 -13 25.5 -38t34 -52t32.5 -50.5t21 -33.5zM491 648q-12 26 -33 64.5t-42 70.5l58 26q21 -32 43 -68.5t33 -62.5zM899 791q-25 -38 -50.5 -76.5t-47.5 -66.5l-51 24q10 15 21.5 33.5t22.5 38t21 39t17 35.5z"     />

    
    <glyph glyph-name="cid25407" unicode="&#x70B9;" d="M814 162q19 -24 38.5 -50.5t37.5 -53t33 -52t24 -46.5l-70 -28q-9 21 -23 46.5t-31 52.5t-36 54.5t-38 51.5zM613 143q12 -23 23.5 -48.5t21.5 -51t17.5 -49t12.5 -42.5l-72 -17q-4 18 -11 42t-16.5 50t-20.5 52t-22 49zM412 135q5 -24 9.5 -50t7.5 -52t5.5 -49.5
t2.5 -41.5l-74 -10q0 19 -1.5 43t-4.5 50t-7 53t-9 51zM45 -43q40 34 76 88.5t60 110.5l70 -18q-25 -59 -61 -117t-77 -97zM833 216h-665v318h287v303h74v-107h378v-70h-378v-126h304v-318zM758 464h-519v-178h519v178z"     />

    
    <glyph glyph-name="cid26785" unicode="&#x73B0;" d="M845 6q13 0 21.5 6.5t13 24.5t7 51t4.5 86q14 -10 30 -17.5t30 -10.5q-3 -59 -8 -97t-16 -60t-30.5 -30.5t-51.5 -8.5h-91q-51 0 -73 17t-22 67v210q-13 -45 -35 -89t-55.5 -85.5t-80 -79t-108.5 -69.5q-3 5 -9 12.5t-12.5 15.5t-13 15t-12.5 11q94 48 150 106t85 119.5
t38 124.5t9 121v192h70v-194q0 -41 -3.5 -82.5t-14.5 -85.5h61v-235q0 -21 7.5 -28t28.5 -7h81zM402 131l-339 -101l-16 72q30 8 66.5 17.5t77.5 21.5v272h-118v69h118v217h-132v70h328v-70h-124v-217h104v-69h-104v-251q32 8 64.5 18t64.5 20zM503 260h-71v528h446v-528
h-73v462h-302v-462z"     />

    
    <glyph glyph-name="cid89" unicode="&#x78;" d="M194 283l-165 260h98l73 -120q14 -22 27 -44.5t27 -45.5h4q13 23 24.5 45t24.5 45l67 120h95l-165 -269l179 -274h-100l-80 127q-15 24 -29 49t-29 48h-5q-14 -23 -28 -47.5t-28 -49.5l-73 -127h-96z"  horiz-adv-x="498"   />

    
    <glyph glyph-name="uni793A" unicode="&#x793A;" d="M938 521v-73h-397v-428q0 -35 -10.5 -54t-36.5 -28t-70.5 -11t-110.5 -2q-3 17 -11 38.5t-16 38.5q25 -1 49.5 -1h44.5h35h22q14 1 19.5 5t5.5 16v426h-399v73h875zM750 350q27 -35 54.5 -75t52 -80.5t43.5 -79t30 -69.5l-73 -32q-11 31 -29 69t-41.5 79t-50.5 82.5
t-54 77.5zM313 331q-18 -46 -41.5 -90.5t-50.5 -85.5t-56 -77t-59 -64q-5 4 -13.5 10.5t-18 13t-19 12t-16.5 9.5q61 53 113 130t85 162zM850 689h-698v73h698v-73z"     />

    
    <glyph glyph-name="cid30182" unicode="&#x7B2C;" d="M944 751v-57h-179q20 -24 36 -49t25 -45l-65 -26q-11 24 -32.5 57.5t-44.5 62.5h-68q-38 -76 -86 -127q-11 8 -31.5 20t-33.5 18q45 44 79 105.5t54 130.5l71 -16q-6 -19 -12.5 -37t-13.5 -37h301zM899 245q-1 -6 -1 -11t-0.5 -10.5t-0.5 -9.5q-5 -52 -10.5 -90
t-11.5 -64.5t-13.5 -43t-17.5 -25.5q-12 -14 -27 -18.5t-35 -6.5q-20 -1 -54 -1.5t-72 1.5q-1 17 -6.5 36t-13.5 33q37 -4 68 -4.5t45 -0.5q13 0 21 1.5t15 6.5q10 11 18 43t16 100h-288v-258h-73v230q-33 -37 -73 -71.5t-83.5 -64t-89 -54t-90.5 -41.5q-8 14 -21.5 31
t-26.5 28q43 14 88 35t87.5 47t80.5 56t69 62h-264q5 22 10 49.5t9.5 56.5t8.5 58t7 56h288v92h-323v63h731v-218h-335v-93h368zM531 401h262v92h-262v-92zM233 338q-4 -23 -7.5 -47t-7.5 -46h240v93h-225zM218 694q-23 -39 -50.5 -73.5t-55.5 -60.5q-11 8 -29.5 19
t-32.5 17q53 45 95.5 109.5t68.5 135.5l69 -16q-8 -19 -16 -37.5t-16 -36.5h256v-57h-160q14 -26 25 -51.5t16 -45.5l-66 -22q-6 23 -19 56.5t-30 62.5h-55z"     />

    
    <glyph glyph-name="cid30267" unicode="&#x7B56;" d="M544 246q30 -33 73.5 -66t97.5 -62.5t117 -53.5t131 -39q-11 -12 -25 -31.5t-22 -33.5q-57 15 -110.5 37.5t-100.5 49.5t-88 57t-73 60v-240h-78v242q-74 -72 -171.5 -126.5t-201.5 -83.5q-7 14 -20.5 32.5t-26.5 29.5q62 14 123 37.5t116 54t101.5 67t79.5 77.5v86h-246
v-192h-77v257h323v77h-395v66h395v33q-11 9 -24 18t-24 14q51 41 93.5 100.5t65.5 126.5l73 -17q-8 -20 -16 -38t-17 -36h321v-64h-206q16 -24 28.5 -48t19.5 -43l-65 -23q-8 23 -24.5 54t-35.5 60h-76q-28 -40 -57 -74h22v-63h381v-66h-381v-77h324v-184q0 -27 -6.5 -40.5
t-26.5 -21.5q-19 -8 -49 -9t-72 -1q-3 14 -10.5 30t-14.5 29q30 -2 56 -1.5t34 0.5q9 0 12 3t3 11v119h-250v-94zM192 685q-22 -33 -45.5 -62.5t-48.5 -52.5q-11 8 -29.5 21t-31.5 20q48 42 90 103t67 126l70 -18q-16 -39 -34 -73h256v-64h-171q14 -24 25.5 -49t17.5 -43
l-65 -24q-7 23 -21.5 55t-30.5 61h-49z"     />

    
    <glyph glyph-name="cid32166" unicode="&#x7F24;" d="M757 120q25 -16 54.5 -35.5t57.5 -39t53 -37.5t43 -33l-49 -50q-17 15 -41.5 34t-52 39.5t-57 41t-55.5 37.5zM607 76q-24 -21 -52.5 -41.5t-59.5 -40t-62.5 -37.5t-60.5 -32q-7 11 -19 26.5t-22 26.5q27 13 57.5 29.5t59.5 35t54 37.5t43 37zM345 95q-75 -29 -149 -57
t-135 -51l-17 69q55 17 131.5 44.5t157.5 56.5zM336 318q-1 -14 1 -32t4 -29q-82 -20 -132 -32t-78 -20t-40.5 -12.5t-19.5 -8.5q-2 10 -9 30.5t-13 34.5q15 3 31.5 21t39.5 45q12 15 38 50.5t57 84.5q-42 -6 -69 -10t-43.5 -7t-24.5 -5.5t-13 -5.5q-3 11 -10.5 32.5
t-13.5 35.5q13 3 25 20.5t27 42.5q7 13 22 41.5t33 67t35.5 83.5t31.5 90l70 -26q-29 -81 -68 -160.5t-81 -145.5l119 12q15 26 29.5 53.5t27.5 54.5l61 -35q-44 -81 -94.5 -159.5t-104.5 -144.5zM462 556h-68v176h248q-9 22 -20 46t-22 44l72 17q13 -25 27.5 -54.5
t24.5 -52.5h212v-176h-65l3 -5q-33 -7 -73.5 -12.5t-84.5 -10.5t-89.5 -8.5t-89.5 -5.5v-95h360v-64h-120v-147h170v-65h-594v65h115v362q48 3 99.5 7t101 9.5t94 12t79.5 14.5l24 -47v104h-404v-114zM537 355v-147h172v147h-172z"     />

    
    <glyph glyph-name="cid32352" unicode="&#x7F8E;" d="M570 191q54 -84 151 -131.5t234 -64.5q-11 -13 -24.5 -32.5t-20.5 -36.5q-152 25 -254 86.5t-160 170.5q-19 -49 -50 -89t-79.5 -72t-118 -56t-165.5 -40q-5 14 -16.5 34t-22.5 33q86 12 149 30.5t107 43t72 55.5t45 69h-332v67h354q5 18 8 37.5t5 39.5h-392v66h401v84
h-311v65h311v81h-360v67h205q-12 26 -33 58t-44 58l64 26q28 -29 52 -64t36 -62l-36 -16h263q23 31 46.5 70.5t39.5 71.5l76 -23q-18 -31 -39 -62t-41 -57h210v-67h-365v-81h320v-65h-320v-84h411v-66h-417q-5 -42 -12 -77h417v-67h-364z"     />

    
    <glyph glyph-name="cid32392" unicode="&#x7FA4;" d="M961 156h-195v-234h-72v234h-187v70h187v145h-150v69h150v135h-164v68h408v-68h-172v-135h155v-69h-155v-145h195v-70zM472 293v-316h-253v-54h-68v272q-16 -26 -33.5 -48.5t-38.5 -42.5q-3 4 -8.5 11.5t-12 15.5t-14 15t-13.5 12q48 45 80.5 105t54.5 132h-73v65h90
q10 46 18 98h-154v64h163q2 24 4.5 49t4.5 51h-121v65h359v-165h59v-64h-59v-163h-222q-8 -28 -16 -53t-19 -49h272zM288 722q-2 -26 -4.5 -51t-5.5 -49h110v100h-100zM269 558q-8 -52 -18 -98h137v98h-119zM219 227v-184h181v184h-181zM611 644q-3 17 -10 37.5t-16 42.5
t-19.5 43.5t-22.5 41.5l59 20q25 -38 45 -83t27 -79zM920 820q-20 -45 -41.5 -91.5t-41.5 -80.5l-61 16q9 17 19.5 39t20 45.5t18 46.5t14.5 43z"     />

    
    <glyph glyph-name="cid32591" unicode="&#x8005;" d="M568 450q-80 -57 -161 -104h413v-418h-76v28h-405v-32h-73v346q-45 -22 -91 -42t-92 -37q-7 12 -21.5 31t-25.5 30q109 38 212.5 87.5t198.5 110.5h-389v67h342v128h-255v66h255v125h73v-125h247v-41q63 63 114 132l63 -34q-53 -69 -113.5 -131.5t-129.5 -119.5h288v-67
h-374zM744 21v104h-405v-104h405zM744 283h-405v-99h405v99zM543 517q81 60 152 128h-222v-128h70z"     />

    
    <glyph glyph-name="cid32747" unicode="&#x8054;" d="M704 312q33 -112 98 -198t160 -128q-13 -11 -27 -29t-22 -33q-81 42 -140 112.5t-98 164.5q-25 -74 -78 -147.5t-149 -139.5q-9 13 -25 28t-30 25q61 39 102.5 82t68.5 87t41.5 89t20.5 87h-198v68h205q2 17 2 32v30v119h-182v69h247q14 19 29.5 43t29.5 49.5t27 50.5
t22 46l74 -21q-24 -43 -50.5 -87t-52.5 -81h135v-69h-205v-120v-29.5t-2 -31.5h244v-68h-247zM380 122v-199h-65v187l-258 -44l-16 70q15 2 31 4t33 4v582h-55v68h374v-68h-44v-538l78 12l5 -64zM171 380h144v143h-144v-143zM171 726v-140h144v140h-144zM171 154q34 5 70 11
t74 12v140h-144v-163zM583 636q-6 16 -16.5 35.5t-23.5 40.5t-27.5 41t-29.5 38l59 29q15 -17 30 -36.5t28.5 -39.5t24.5 -39.5t18 -35.5z"     />

    
    <glyph glyph-name="cid33121" unicode="&#x8109;" d="M950 518q-20 -22 -41.5 -45.5t-43 -46.5t-42.5 -44t-40 -39q36 -85 83 -153.5t107 -108.5q-13 -11 -28 -28t-24 -31q-66 51 -116 135t-86 189v-336q0 -31 -8 -48t-28 -27q-22 -10 -56.5 -12t-89.5 -2q-2 15 -8.5 36t-14.5 36q39 -2 71.5 -1.5t42.5 0.5q11 1 15.5 4.5
t4.5 14.5v561h-194v71h265v-100q8 -35 18.5 -69.5t21.5 -67.5q17 18 34.5 38.5t34 41.5t31.5 41.5t27 38.5zM607 453q-21 -152 -74 -260.5t-129 -168.5q-6 11 -17 26t-22 26v-64q0 -30 -7.5 -47t-26.5 -27q-18 -9 -48 -11.5t-78 -2.5q-2 14 -8 35t-14 35q34 -1 60.5 -1
t34.5 1q11 1 14.5 4.5t3.5 13.5v247h-142q-6 -88 -21.5 -177t-46.5 -161q-11 9 -29 19.5t-31 15.5q24 52 37.5 114t20 126.5t8.5 127.5t2 118v358h271v-713q56 44 99.5 124t65.5 183h-135v69h157l12 3zM160 732v-166h136v166h-136zM296 328v170h-136v-55v-55.5t-2 -59.5h138
zM786 666q-23 13 -55.5 28.5t-69.5 30t-75.5 28t-72.5 23.5l30 58q34 -9 72 -21.5t75.5 -26t70.5 -28t56 -27.5z"     />

    
    <glyph glyph-name="cid36625" unicode="&#x878D;" d="M904 -77q-2 18 -6.5 38.5t-10.5 43.5q-88 -17 -173 -31.5t-153 -28.5l-18 69q70 9 165 26v223h-148v376h148v190h66v-190h145v-376h-145v-214l96 17q-20 66 -45 127l54 14q14 -32 27 -68.5t24.5 -72t19.5 -68.5t12 -58zM861 575h-92v-247h92v247zM616 328h97v247h-97
v-247zM57 793h469v-65h-469v65zM478 469h-373v202h373v-202zM411 617h-241v-94h241v94zM511 6q0 -24 -5.5 -38t-22.5 -22q-16 -8 -42 -9t-65 -1q-2 13 -7.5 29t-11.5 29q28 -1 50 -1h29q13 1 13 14v348h-318v-429h-60v487h440v-407zM217 334q18 -28 34 -60.5t24 -55.5
l-45 -17q-7 23 -23 56.5t-33 61.5zM320 145v-194h-57v194h-103v51h136q18 32 37 71t30 71l50 -20q-16 -30 -32.5 -62t-33.5 -60h70v-51h-97z"     />

    
    <glyph glyph-name="cid37005" unicode="&#x8868;" d="M904 303q-43 -37 -94 -73.5t-99 -65.5q52 -49 114 -85t137 -58q-12 -11 -26.5 -30t-22.5 -34q-155 52 -259.5 161t-161.5 267q-32 -35 -71.5 -68.5t-84.5 -63.5v-221l242 73q2 -15 5.5 -34t6.5 -30q-104 -33 -166 -53.5t-97 -32.5t-49.5 -18.5t-23.5 -12.5
q-4 14 -13.5 34.5t-18.5 33.5q12 6 25 21t13 44v148q-43 -25 -86.5 -45t-85.5 -36q-8 14 -22 31.5t-26 28.5q46 15 95 36t96 47.5t90 56t78 61.5h-330v64h392v89h-302v62h302v84h-353v64h353v89h74v-89h364v-64h-364v-84h319v-62h-319v-89h395v-64h-366q41 -100 106 -177
q22 15 46 33t47 36t43.5 35.5t36.5 33.5z"     />

    
    <glyph glyph-name="cid38638" unicode="&#x8BA9;" d="M953 27v-73h-605v73h240v802h74v-320h219v-71h-219v-411h291zM395 192q3 -15 10.5 -33t12.5 -29q-70 -53 -112 -85.5t-65.5 -52t-33.5 -29.5t-16 -17q-7 10 -22 24.5t-26 21.5q8 7 19 18t20.5 25.5t16.5 32.5t7 38v346h-156v71h226v-419zM290 618q-13 15 -31 34t-38.5 40
t-42 41.5t-40.5 38.5l46 48q19 -17 40.5 -37t42.5 -39.5t39 -38t31 -32.5z"     />

    
    <glyph glyph-name="cid38643" unicode="&#x8BAE;" d="M909 767q-15 -86 -34 -167.5t-46 -156.5t-62.5 -143t-81.5 -128q56 -61 125 -107t155 -77q-14 -11 -29 -30t-23 -34q-85 33 -153.5 80.5t-125.5 107.5q-53 -57 -119.5 -104.5t-151.5 -85.5q-8 13 -21 29.5t-24 27.5q85 37 151.5 84t118.5 105q-83 111 -135 255.5
t-84 321.5l68 12q29 -158 76.5 -291.5t124.5 -236.5q41 56 72.5 119.5t54.5 132.5t40 144t29 154zM380 176q4 -15 11 -33.5t13 -29.5q-63 -45 -102 -73t-62 -45t-33.5 -26.5t-16.5 -16.5v-3l-1 1l-1 -1l-1 4q-8 12 -19.5 26t-21.5 22q14 12 28.5 37t14.5 63v352h-139v72h212
v-431zM241 613q-9 16 -23.5 35.5t-31 40t-35 41t-35.5 38.5l52 39q18 -17 36.5 -36.5t36 -39.5t32.5 -38.5t24 -33.5zM640 580q-6 21 -16.5 47t-24 54t-28.5 56t-30 53l64 26q15 -25 30.5 -52.5t29.5 -54.5t25 -52.5t17 -45.5z"     />

    
    <glyph glyph-name="cid39250" unicode="&#x8D62;" d="M892 -22q10 0 13 4q5 5 9 21q2 9 2.5 29t0.5 48q20 -17 44 -23q-1 -27 -3.5 -53t-5.5 -37q-8 -23 -21 -30q-6 -5 -15.5 -6.5t-19.5 -1.5h-33q-12 0 -23.5 3.5t-19.5 11.5q-5 4 -7.5 9.5t-4.5 15t-2.5 24t-0.5 37.5v58l-39 -17q-10 32 -30 76.5t-42 84.5v-17
q0 -35 -4 -73.5t-14.5 -77t-29.5 -75.5t-50 -67q-8 8 -22 17.5t-25 14.5q30 28 47.5 61t27 67.5t12.5 68.5t3 65v164h222v-357q0 -16 0.5 -27t2.5 -14q3 -4 11 -4h17zM725 268q23 -37 44.5 -80.5t35.5 -79.5v218h-111v-71zM550 -25q-14 16 -35.5 37t-43.5 41
q-18 -43 -47 -74.5t-77 -54.5q-5 10 -14 22t-17 20q44 20 70.5 47.5t41.5 66.5t20.5 90.5t7.5 119.5h48q-2 -60 -6 -107.5t-15 -86.5l6 5q26 -20 54 -44.5t43 -43.5zM316 -9q0 -23 -5 -35.5t-22 -20.5q-15 -7 -40.5 -8t-64.5 -1q-2 12 -7.5 26.5t-10.5 25.5q29 -1 51 -1
t30 1q13 0 13 13v100h-104q-8 -45 -23.5 -88t-44.5 -77q-6 8 -21 17.5t-26 14.5q23 27 37 59t21 64.5t9 64.5t2 61v173h206v-389zM165 329v-67h95v67h-95zM260 141v71h-95v-6q0 -31 -3 -65h98zM836 421h-668v151h668v-151zM765 524h-530v-55h530v55zM546 88v239h-138v-245
h-49v297h237v-291h-50zM162 724h-118v53h429q-7 14 -14.5 27.5t-15.5 25.5l70 16q11 -16 22 -34.5t19 -34.5h398v-53h-728v-56h662v-52h-724v108z"     />

    
    <glyph glyph-name="cid39300" unicode="&#x8D85;" d="M523 411h381v-308h-381v308zM593 165h238v184h-238v-184zM315 53q45 -18 103 -24.5t133 -7.5h43.5h72.5h87h88t75 0.5t49 1.5q-10 -14 -18.5 -35.5t-12.5 -38.5h-382q-80 0 -143 7.5t-111.5 26t-85.5 51.5t-64 84q-9 -57 -22.5 -106t-36.5 -90q-9 7 -27.5 18.5
t-31.5 17.5q21 37 34.5 84.5t21 102.5t10 116.5t3.5 127.5l68 -4q-2 -75 -6 -142q16 -50 36.5 -86.5t49.5 -62.5v367h-192v66h178v123h-159v66h159v120h69v-120h156v-66h-156v-123h176v-43q67 38 103 98t47 149h-139v64h437v-12q0 -5 -0.5 -10t-0.5 -9q-3 -67 -7 -114.5
t-8.5 -79.5t-10.5 -51t-14 -28q-11 -13 -25 -18t-33 -7q-17 -2 -46.5 -2t-62.5 2q-2 15 -6.5 32.5t-12.5 31.5q31 -3 57.5 -3t37.5 -1q11 0 18 1.5t12 7.5t9 19t7.5 36t6.5 57.5t6 83.5h-153q-15 -112 -62 -185t-127 -120q-6 7 -17.5 17t-22.5 18h-157v-142h155v-66h-155
v-200z"     />

    
    <glyph glyph-name="cid39306" unicode="&#x8D8A;" d="M321 58q48 -21 109.5 -29t139.5 -8h41h69h83t84.5 0.5t72 0.5t46.5 1q-9 -14 -17.5 -35.5t-12.5 -38.5h-366q-82 0 -146.5 8t-115.5 28.5t-89.5 55.5t-67.5 90q-9 -54 -25.5 -106.5t-45.5 -98.5q-8 12 -23.5 26t-26.5 19q26 44 41.5 96t23 106.5t9 109t0.5 104.5l63 -3
q1 -32 0.5 -64.5t-2.5 -65.5q33 -102 88 -153v352h-206v67h190v127h-153v66h153v123h69v-123h150v-66h-150v-127h170v-67h-155v-137h139v-66h-139v-192zM680 332q3 -14 8 -31t10 -26q-64 -37 -102.5 -60t-60.5 -37t-31.5 -21.5t-15.5 -13.5q-4 14 -13.5 34t-18.5 31
q14 8 29.5 24t15.5 46v385h192q-2 42 -3 85t-2 87h69q0 -90 3 -172h197v-64h-194q5 -77 12.5 -143.5t16.5 -120.5q28 46 49 97t37 105l58 -16q-44 -154 -124 -275q15 -52 31.5 -80t36.5 -28q12 0 18.5 34.5t9.5 109.5q11 -11 25 -20.5t27 -14.5q-4 -51 -10.5 -84.5
t-16.5 -54t-25 -29t-36 -8.5q-33 0 -59.5 29t-46.5 83q-35 -42 -74 -77t-83 -61q-9 12 -22 27.5t-24 25.5q51 27 96 68t83 92q-17 69 -28 155t-17 186h-129v-329zM883 677q-8 12 -19 27t-24 31.5t-27 33t-27 30.5l52 28q26 -29 54 -62t44 -56z"     />

    
    <glyph glyph-name="cid40483" unicode="&#x9020;" d="M253 95q15 -6 31.5 -18.5t42.5 -27.5q46 -26 109.5 -33t143.5 -7q44 0 95 1.5t102.5 4t100.5 6t88 8.5q-7 -15 -14 -37.5t-8 -39.5q-33 -2 -79.5 -3.5t-97 -3t-100.5 -2.5t-89 -1q-88 0 -151.5 8.5t-111.5 36.5q-28 16 -49.5 32t-36.5 16q-25 0 -60 -31t-72 -73l-47 65
q33 30 66.5 55t64.5 37v298h-130v70h202v-361zM223 596q-11 16 -28 36.5t-37.5 42.5t-42 43t-42.5 39l55 39q21 -17 43 -37.5t42.5 -41.5t38 -41t29.5 -36zM386 94v279h481v-279h-481zM456 156h338v155h-338v-155zM438 646q-16 -29 -33.5 -55.5t-36.5 -48.5q-10 8 -30 19
t-32 17q43 45 77.5 110.5t54.5 134.5l69 -16q-8 -24 -17 -48.5t-19 -47.5h123v124h73v-124h234v-65h-234v-127h277v-65h-637v65h287v127h-156z"     />

    
    <glyph glyph-name="uni91D1" unicode="&#x91D1;" d="M261 244q15 -21 29.5 -45t27 -47.5t23 -46t16.5 -40.5l-65 -27q-5 17 -15 39.5t-22 47t-26.5 49t-28.5 45.5zM627 60q13 18 27.5 41.5t28.5 48t26.5 49t21.5 45.5l70 -27q-27 -47 -59 -96.5t-59 -84.5zM536 470v-136h349v-68h-349v-244h394v-69h-859v69h388v244h-343v68
h343v136h-216v55q-79 -43 -159 -73q-8 16 -22 35.5t-28 32.5q70 23 138 56t128.5 74.5t111.5 90.5t87 105l68 -32q-11 -18 -25 -36q37 -40 87 -78.5t106.5 -72.5t116.5 -61.5t117 -45.5q-14 -11 -29 -30.5t-23 -34.5q-39 15 -79.5 34.5t-81.5 42.5v-62h-220zM744 539
q-68 40 -131 88.5t-112 99.5q-50 -54 -109 -101.5t-125 -86.5h477z"     />

    
    <glyph glyph-name="cid42760" unicode="&#x94C1;" d="M739 322q28 -113 82.5 -201t139.5 -133q-12 -11 -27 -28.5t-24 -32.5q-77 45 -128.5 124.5t-84.5 181.5q-26 -85 -81 -164t-155 -145q-8 12 -23.5 28t-29.5 26q58 35 99 75.5t69 85t44.5 91t25.5 92.5h-199v70h209q3 35 4 69t1 65v63h-120q-12 -40 -26 -75.5t-31 -64.5
q-10 8 -28.5 19t-31.5 18q35 58 57 140.5t33 170.5l69 -11q-5 -33 -11 -65t-13 -63h102v173h72v-173h192v-69h-192v-63q0 -32 -1 -65.5t-4 -68.5h221v-70h-210zM418 124q2 -15 6.5 -34t7.5 -30q-69 -37 -111 -60t-66 -36.5t-35 -21t-17 -13.5q-5 14 -15 33.5t-20 31.5
q14 8 30 26t16 49v207h-151v68h151v135h-102v67h293v-67h-120v-135h144v-68h-144v-220zM177 654q-24 -38 -49.5 -70.5t-53.5 -59.5q-2 6 -6.5 15.5t-10 19.5t-11.5 19.5t-10 15.5q47 44 86.5 107.5t64.5 132.5l66 -20q-16 -47 -38 -90h216v-70h-254z"     />

    
    <glyph glyph-name="cid44269" unicode="&#x9886;" d="M769 135q25 -18 52.5 -40t53.5 -44t49 -43t38 -38l-46 -46q-15 17 -37.5 39t-48.5 45t-53 45.5t-52 42.5zM756 507q-1 -137 -9 -235t-35.5 -167t-82.5 -113t-150 -74q-5 12 -15.5 27.5t-21.5 25.5q89 26 139 64.5t74.5 100t30.5 151.5t7 220h63zM456 360
q-15 -36 -34.5 -74.5t-41.5 -76t-44.5 -72.5t-42.5 -63q26 -26 49 -51.5t38 -45.5l-53 -43q-16 22 -40 49.5t-52 56.5t-58 57.5t-58 52.5l49 38q37 -32 78 -69q29 42 61.5 96t55.5 105h-259v66h293l12 4zM256 575q28 -27 55.5 -59t43.5 -55l-50 -35q-15 25 -43 59t-55 61z
M453 490q-14 21 -34 46.5t-43.5 53t-49 56t-50.5 54.5q-38 -69 -84.5 -130.5t-103.5 -111.5q-8 10 -23.5 23.5t-27.5 21.5q38 32 72.5 71.5t64 83.5t53 90t40.5 90l65 -19q-6 -15 -12.5 -30t-13.5 -31q27 -26 55 -55t53.5 -57.5t47.5 -55.5t37 -48zM659 609q9 23 19 51.5
t18 54.5h-190v66h440v-66h-180q-11 -26 -21 -54t-20 -52h193v-465h-69v408h-251v-410h-67v467h128z"     />

    
    <glyph glyph-name="uni98DF" unicode="&#x98DF;" d="M563 811q-5 -7 -9.5 -13t-9.5 -12q36 -39 84.5 -75t104.5 -67t116.5 -55t120.5 -40q-13 -11 -27 -30t-22 -34q-69 21 -140 55v-317q9 7 17.5 13.5t15.5 12.5l55 -42q-39 -31 -83.5 -60.5t-89.5 -55.5q54 -31 101 -60.5t80 -54.5l-53 -51q-31 25 -76.5 54.5t-97 60.5
t-106.5 60.5t-106 53.5l49 44q35 -16 72.5 -35t75.5 -39q35 20 70 44t66 47h-480v-195l243 45q-2 -15 -1.5 -34.5t1.5 -30.5q-99 -20 -158 -32.5t-92.5 -20.5t-47.5 -12.5t-23 -9.5q-3 14 -11 33.5t-16 30.5q10 5 21 18.5t11 42.5v478q-32 -17 -64 -31t-65 -25
q-8 13 -21 30.5t-26 30.5q68 22 134.5 53.5t126 71t109 86t84.5 98.5zM291 505v-83h416v83h-416zM707 276v89h-416v-89h416zM731 566q-66 35 -124 79t-104 92q-93 -99 -216 -171h191q-10 20 -22.5 41.5t-26.5 38.5l64 19q17 -22 34.5 -50t26.5 -49h177z"     />

    
    <glyph glyph-name="cid44751" unicode="&#x996E;" d="M712 483q0 -19 -0.5 -38t-1.5 -40q14 -74 36.5 -140t54.5 -121t75 -96.5t99 -66.5q-12 -11 -26 -28.5t-22 -32.5q-91 48 -149.5 131.5t-94.5 198.5q-12 -43 -32.5 -86.5t-51.5 -86t-74 -83t-101 -77.5q-8 12 -24 27.5t-29 24.5q94 59 147.5 126.5t80.5 136t34 134
t7 119.5v57h72v-59zM388 163q4 -14 9.5 -32.5t10.5 -29.5q-74 -48 -118.5 -77t-69.5 -46t-35.5 -25.5t-16.5 -15.5q-5 12 -16.5 31t-22.5 30q7 5 17 13.5t18 20t14 26t6 31.5v403h71v-411zM177 612q-19 -61 -42.5 -114.5t-51.5 -95.5q-9 9 -27 23.5t-30 22.5q25 35 45 79
t36.5 93.5t29 103.5t21.5 110l69 -13q-12 -72 -30 -141h184l13 4l49 -16q-17 -55 -38.5 -112t-42.5 -97l-59 21q14 26 27 61t24 71h-177zM580 618q-19 -57 -42 -106t-51 -88q-10 8 -29.5 21t-33.5 21q25 33 46 74.5t37.5 89t28.5 99.5t21 106l73 -10q-12 -71 -30 -139h281
l12 3l52 -15q-6 -30 -13.5 -61t-15.5 -61t-16.5 -57t-17.5 -48l-63 19q11 29 21.5 69.5t18.5 82.5h-279z"     />

    
    <glyph glyph-name="cid59003" unicode="&#xFF0C;" d="M135 -54q58 24 90 60t36 87q-5 -1 -8.5 -1h-8.5q-31 0 -53 18t-22 53t22.5 53.5t53.5 18.5q42 0 63.5 -31t21.5 -84q0 -81 -47 -140t-126 -87z"     />

    

  </font>
</defs>
</svg>
